<mxfile host="app.diagrams.net" modified="2023-01-18T10:24:24.893Z" agent="5.0 (Windows NT 10.0; Win64; x64) AppleWebKit/537.36 (KHTML, like Gecko) Chrome/109.0.0.0 Safari/537.36" version="20.8.5" etag="hbE-DFwcmmYEkMUpFwnt" type="github">
  <diagram id="tWkkaewZt5_f_mdGmFeQ" name="第 1 页">
    <mxGraphModel dx="1050" dy="549" grid="1" gridSize="10" guides="1" tooltips="1" connect="1" arrows="1" fold="1" page="1" pageScale="1" pageWidth="827" pageHeight="1169" math="0" shadow="0">
      <root>
        <mxCell id="0" />
        <mxCell id="1" parent="0" />
        <mxCell id="ktwBRSAVn6J-n8mZAreU-2" value="&lt;font style=&quot;font-size: 24px;&quot;&gt;限流&lt;/font&gt;" style="rounded=1;whiteSpace=wrap;html=1;strokeWidth=2;fillWeight=4;hachureGap=8;hachureAngle=45;fillColor=#d5e8d4;sketch=1;strokeColor=#82b366;" vertex="1" parent="1">
          <mxGeometry x="110" y="130" width="120" height="60" as="geometry" />
        </mxCell>
        <mxCell id="ktwBRSAVn6J-n8mZAreU-3" value="&lt;font style=&quot;font-size: 24px;&quot;&gt;熔断&lt;/font&gt;" style="rounded=1;whiteSpace=wrap;html=1;strokeWidth=2;fillWeight=4;hachureGap=8;hachureAngle=45;fillColor=#f8cecc;sketch=1;strokeColor=#b85450;" vertex="1" parent="1">
          <mxGeometry x="293.5" y="130" width="120" height="60" as="geometry" />
        </mxCell>
        <mxCell id="ktwBRSAVn6J-n8mZAreU-4" value="&lt;font style=&quot;font-size: 24px;&quot;&gt;过载保护&lt;/font&gt;" style="rounded=1;whiteSpace=wrap;html=1;strokeWidth=2;fillWeight=4;hachureGap=8;hachureAngle=45;fillColor=#fff2cc;sketch=1;strokeColor=#d6b656;" vertex="1" parent="1">
          <mxGeometry x="480" y="130" width="120" height="60" as="geometry" />
        </mxCell>
        <mxCell id="ktwBRSAVn6J-n8mZAreU-5" value="&lt;font style=&quot;font-size: 24px;&quot;&gt;降级&lt;/font&gt;" style="rounded=1;whiteSpace=wrap;html=1;strokeWidth=2;fillWeight=4;hachureGap=8;hachureAngle=45;fillColor=#f5f5f5;sketch=1;strokeColor=#666666;fontColor=#333333;" vertex="1" parent="1">
          <mxGeometry x="670" y="130" width="120" height="60" as="geometry" />
        </mxCell>
      </root>
    </mxGraphModel>
  </diagram>
</mxfile>
